<?xml version="1.0" encoding="UTF-8"?><svg id="White" xmlns="http://www.w3.org/2000/svg" viewBox="0 0 1058.55 1138.77"><defs><style>.cls-1{fill:#fff;stroke:#fff;stroke-miterlimit:10;}</style></defs><path class="cls-1" d="M805.8,176.42c3.45-3.38,2.9-9.1-1.2-11.64-23.13-14.32-50.58-29.28-83.44-42.3-37.64-14.91-71.9-23.11-99.56-27.77,9.4,3.01,22.64,7.9,37.79,15.46,17.35,8.67,31.68,18.14,43.07,26.78,13.38,10.15,26.87,18.32,43.19,31.68,13.35,10.92,24.21,20.98,32.42,29,1.09,1.07,2.76,1,5.55,.54l22.2-21.75Z"/><path class="cls-1" d="M377.01,868.4c4.85-5.91,9.25-10.28,12.51-13.28,2.71-2.49,4.44-3.85,6.89-4.09,5.06-.48,9.13,4.27,10.21,5.62,24.41,18.61,88.32,61.8,175.84,60.19,90.52-1.67,152.12-50.47,190.71-80.5,67.19-52.3,101.18-113.37,116.53-146.12,13.35-29.21,42.03-117.8,46.43-207.68,.3-6.07,1.04-24.49-6.6-27.59-4.17-1.69-10.04,1.49-17.84,5.72-5.98,3.24-10.26,6.71-12.59,8.74-6.48,5.66-11.15,11.83-14.8,16.71-5.61,7.5-6.1,9.23-7.24,9.06-4.48-.68-3.78-28.83-2.72-66.1,.25-9.01-.04-15.97,.74-25.94,1.02-12.99,2.84-23.78,4.41-31.5,.11-.56,.37-1.02,.76-1.44l62.88-67.95c1.3-1.4,3.6-1.25,4.76,.27,17.33,22.73,30.41,43.11,39.9,59.16,7.83,13.23,16.53,28.03,25.53,48.93,5.1,11.85,8.95,23.61,15.91,44.69,49.59,150.13,2.42,307.64,2.42,307.64-40.88,136.5-126.4,217.73-162.67,248.61-53.31,45.39-100.62,73.5-147.4,91.38-72.42,27.69-132.73,30.69-168.21,31.95-107.83,3.82-187.36-23.97-205.46-30.55-67.57-24.59-118.39-59.12-152.94-87.57-.5-.19-3.63-1.47-4.85-4.85-1.06-2.94-.26-6.31,2.04-8.68,18.04-18.38,36.09-36.77,54.13-55.15,2.5-2.82,6.05-5.75,10.21-5.62,4.48,.14,7.69,3.76,8.68,4.85,6.76,7.42,50.01,50.33,109.79,109.53,3.27,1.89,8.83,4.4,15.32,3.57,7.8-.99,12.95-6.26,15.32-8.68,9.98-10.17,29.56-29.53,55.06-55.49,1.64-1.67,5.05-5.54,6.21-11.4,1.09-5.49-.34-10.33-1.53-13.28-28.94-29.19-57.87-58.38-86.81-87.57-.93-1.43-2.94-4.94-2.81-9.7,.07-2.5,.71-4.53,1.28-5.87Z"/><path class="cls-1" d="M810.87,591.9c-3.59-2.39-35.81-13.14-58.09-30.75-22.03-17.42-35.48-36.36-43.02-48.9-25.26-31.33-40.04-60.12-48.8-80.6-12.56-29.35-19.14-56.54-23.9-76.18-7.55-31.17-6.65-38.1-13.9-65.02-.89-3.3-9.51-34.85-24.12-67.27-25.58-56.78-59.37-95.46-77.42-114.37-13.1-13.72-36.54-37.95-73.38-60.75C394.35,14.72,337.61,.41,333.44,8.44c-3.13,6.03,26.38,18.88,42.32,55.54,6.1,14.03,8.55,35.35,9.24,42.66,.11,1.17-1.02,1.97-2.08,1.47-10.37-4.9-53.58-24.94-84.28-33.49-28.97-8.07-77.39-17.02-77.39-14.1s24.34,33.6,32.58,62.48c3.69,12.93,5.8,32.92,6.36,38.78,.08,.81-.66,1.42-1.45,1.19-7.82-2.33-42.61-12.46-66.48-15.48-19.82-2.5-50.16-2.25-59.08-2.11-1.04,.02-1.56,1.17-.88,1.96,5.26,6.13,21.65,25.92,29.79,43.38,7.02,15.07,10.64,28.92,12.59,39.71-28.53,26.76-148.66,145.44-163.85,340.65-14.09,181.1,70.57,312.53,97.5,349.87,.33,.46,.76,.79,1.22,.99,0,0,1.33,.5,3.31-.7,3.31-1.99,54.25-50.98,60.16-56.67,.42-1.07,.95-2.88,.77-5.11-.37-4.45-3.3-7.22-4.09-7.91-38.47-38.55-76.94-77.11-115.4-115.66-1.23-1.59-4.93-6.79-4.85-14.3,.06-5.9,2.43-10.19,3.57-12,21.53-21.19,43.06-42.38,64.6-63.57,2.2-.79,7.47-2.35,14.04-1.02,6.55,1.33,10.79,4.8,12.51,6.38,51.61,50.65,88.74,87.1,89.87,88.34,.24,.26,1.34,1.65,3.1,1.83h0c1.13,.11,2.39,.02,3.79-.29,6.55-6.55,13.11-13.11,19.66-19.66,1.01-.96,2.22-2.45,2.3-4.34,.07-1.59-.7-2.8-.81-3-1.74-3.01-9.27-43.68-1.92-74.42,11.72-49.07,63.18-83.17,60.83-104.31-2.13-19.18-15.26-16.35-29.73-53.75-5.97-15.42-14.78-39.06-9.36-67.4,4.39-22.96,16.96-43.02,21.69-42.5,5.33,.58-14.17,55.4,1.86,95.71,11.53,29,30.7,45.78,54.33,65.97,17.21,14.71,26.34,19.54,111.22,67.93,39.08,22.28,71.02,40.89,88.59,70.62,10.06,17.02,14.32,35.28,14.32,35.28,4.23,18.13,.01,43.49,2.2,43.49s117.9-64.81,115.91-67.12c-1.98-2.31-21.19,.3-36.62-5.46-16.22-6.06-26.88-15.43-32.35-20.99-6.54-8-13.94-18.49-20.58-31.59-8.94-17.66-11-43.38-15.73-46.22-4.73-2.84-16.53,2.94-29.09,.72-14.28-2.53-24.45-8.72-29.77-12.5-9.02-12.29-18.73-27.35-27.77-45.21-11.05-21.85-23.79-56.28-22.95-59.17s12.39-5.67,21.92-7.19c21.58-3.43,38.73,4.03,54.88,11.31,14.34,6.46,36.78,18.72,59.58,41.68,5.87,11.97,11.86,25.92,17.21,41.76,5.41,16.02,8.58,42.62,11.73,44.11,3.15,1.49,18.46-8.11,36.36-4.34,17.36,3.65,27.68,14.27,30.94,17.93,4.81,7.42,10.55,18.03,14.57,31.62,5.39,18.2,2.34,42.26,4.61,44.26s36.37-10.26,57.83-36.2c18.7-22.6,27.68-53.96,24.09-56.35Zm-305.43-235.81c-2.52-.27-3.11-5.05-6.35-16.76-7.58-27.36-18.98-54-30.51-80.96-5.04-11.79-6.6-14.56-5.26-15.83,5.16-4.89,49.72,16.08,58.19,54.58,6.37,28.94-9.45,59.68-16.06,58.97Z"/><path class="cls-1" d="M657.08,353.94l100.98-100.88,68.05-67.99,145.81-50.47c2.58-.89,5.07,1.57,4.19,4.16l-47.78,141.96-208.35,210.34c-12.12-16.53-25.73-37.93-37.9-64.23-12.63-27.3-20.26-52.4-25.01-72.88Z"/><path class="cls-1" d="M521.41,491.56c6.5-7.5,33.17,4.01,50.66,16.35,15.04,10.61,35.77,30.62,30.98,40.49-2.49,5.13-11.05,5.84-25,6.98-14.36,1.18-23.13,1.9-31.52-3.19-8.19-4.97-11.84-14.62-19.15-33.91-5.91-15.6-8.86-23.4-5.98-26.72Z"/><path class="cls-1" d="M414.24,596.15c.87-.88,2.16-1.15,3.29-.64,17.84,8.04,38.97,19.28,61.2,35.01,21.73,15.37,39.06,31.17,52.45,45.07,1.11,1.16,1.04,2.95-.08,4.09-62.4,63.52-124.8,127.05-187.21,190.57-1.11,1.13-1.13,2.94-.04,4.09,33.05,34.91,66.11,69.81,99.16,104.72,1.1,1.16,1.07,3-.07,4.12l-54.76,54.18c-1.15,1.14-3.01,1.14-4.15,0l-126.67-126.13c-1.15-1.14-3-1.15-4.15-.01l-118.51,116.77c-1.16,1.15-3.04,1.13-4.18-.04l-44.87-45.88c-1.13-1.15-1.12-3,.02-4.14l118.67-119.35c1.15-1.16,1.14-3.03-.02-4.17-43.87-43.48-87.75-86.96-131.62-130.45-1.16-1.15-1.16-3.03,0-4.18l52.65-52.61c1.14-1.14,2.99-1.15,4.14-.02,35.63,34.82,71.26,69.64,106.9,104.45,1.16,1.13,3.02,1.12,4.16-.03,57.9-58.47,115.8-116.94,173.7-175.41Z"/></svg>