<?xml version="1.0" encoding="UTF-8"?><svg id="uuid-d46bcceb-5d15-4fb4-8e40-31673bd35d3d" xmlns="http://www.w3.org/2000/svg" viewBox="0 0 140.89 152.55"><defs><style>.uuid-1d31c399-9bd7-4885-a3a7-fb969f25bb07{fill:#dbc34c;stroke:#dbc34c;stroke-miterlimit:10;stroke-width:.14px;}</style></defs><g id="uuid-29fcc633-10b9-4488-817a-04eee4bc9918"><g id="uuid-5f2d6774-79ad-471c-8116-827d6e478ac1"><path class="uuid-1d31c399-9bd7-4885-a3a7-fb969f25bb07" d="m20.7,24.97c.95,2.03,1.44,3.9,1.7,5.36-1.06,1-3.07,2.94-5.46,5.79,8.5,2.52,21.87,5.3,38.14,3.83.14-3.83,2.94-7.54,6.29-7.98,3.12-.41,5.95,2.12,7.24,4.41.22.4.42.83.58,1.27,4.69-1.11,8.81-2.44,12.31-3.75,0,0,0,0,0,0-.49-1.38-1.1-2.95-1.82-4.54-3.45-7.67-8.01-12.89-10.45-15.44-1.77-1.85-4.93-5.12-9.91-8.2C52.06,1.21,44.4-.72,43.83.36c-.42.81,3.56,2.55,5.71,7.5.82,1.89,1.15,4.77,1.25,5.76.01.16-.14.27-.28.2-1.4-.66-7.23-3.37-11.38-4.52-3.91-1.09-10.45-2.3-10.45-1.9s3.29,4.54,4.4,8.43c.5,1.75.78,4.44.86,5.24.01.11-.09.19-.2.16-1.06-.31-5.75-1.68-8.98-2.09-2.68-.34-6.77-.3-7.98-.29-.14,0-.21.16-.12.26.71.83,2.92,3.5,4.02,5.86Z"/><path class="uuid-1d31c399-9bd7-4885-a3a7-fb969f25bb07" d="m108.29,79.13c-.48-.32-4.83-1.77-7.84-4.15-2.97-2.35-4.79-4.91-5.81-6.6-3.41-4.23-5.41-8.12-6.59-10.88-1.7-3.96-2.58-7.63-3.23-10.28-1.02-4.21-.9-5.14-1.88-8.78-.03-.13-.16-.58-.36-1.26-3.88,1.51-8.14,2.89-12.74,3.99.03,2.45-.82,4.84-2.79,6.14-3.51,2.32-9.31.33-11.28-3.85-16.62,1.47-31.04-1.5-41.06-4.54C8.74,46.76,1.59,59.41.28,76.32c-1.9,24.45,9.53,42.19,13.16,47.23.04.06.1.11.17.13,0,0,.18.07.45-.09.45-.27,7.32-6.88,8.12-7.65.06-.14.13-.39.1-.69-.04-.53-.4-.91-.55-1.07-.59-.61-6.68-6.73-15.07-15.1-.18-.59-.37-1.42-.37-2.44,0-.94.14-1.73.3-2.3.31-1,.97-2.63,2.47-4.09.61-.59,2.63-2.55,5.62-2.55.48,0,2.41.03,4.09,1.28,3.73,2.78,1.64,8.21,4.77,10.68,1.11.88,3.05,1.53,6.72.6,2.01-1.92,3.45-3.32,3.76-3.62,0,0,.3-.31.31-.59,0-.22-.09-.38-.11-.41-.23-.41-1.25-5.9-.26-10.05,1.58-6.62,8.53-11.23,8.21-14.08-.29-2.59-2.06-2.21-4.01-7.26-.81-2.08-2-5.27-1.26-9.1.59-3.1,2.29-5.81,2.93-5.74.72.08-1.91,7.48.25,12.92,1.56,3.91,4.15,6.18,7.33,8.91,2.32,1.99,3.56,2.64,15.01,9.17,5.28,3.01,9.59,5.52,11.96,9.53,1.36,2.3,1.93,4.76,1.93,4.76.57,2.45,0,5.87.3,5.87s15.92-8.75,15.65-9.06c-.27-.31-2.86.04-4.94-.74-2.19-.82-3.63-2.08-4.37-2.83-.88-1.08-1.88-2.5-2.78-4.26-1.21-2.38-1.48-5.86-2.12-6.24-.64-.38-2.23.4-3.93.1-1.93-.34-3.3-1.18-4.02-1.69-1.22-1.66-2.53-3.69-3.75-6.1-1.49-2.95-3.21-7.6-3.1-7.99.11-.39,1.67-.77,2.96-.97,2.91-.46,5.23.54,7.41,1.53,1.94.87,4.96,2.53,8.04,5.63.79,1.62,1.6,3.5,2.32,5.64.73,2.16,1.16,5.75,1.58,5.96.43.2,2.49-1.09,4.91-.59,2.34.49,3.74,1.93,4.18,2.42.65,1,1.42,2.43,1.97,4.27.73,2.46.32,5.71.62,5.97.31.27,4.91-1.38,7.81-4.89,2.52-3.05,3.74-7.28,3.25-7.61Z"/><path class="uuid-1d31c399-9bd7-4885-a3a7-fb969f25bb07" d="m69.21,65.58c.88-1.01,4.48.54,6.84,2.21,2.03,1.43,4.83,4.13,4.18,5.47-.34.69-1.49.79-3.37.94-1.94.16-3.12.26-4.25-.43-1.11-.67-1.6-1.97-2.59-4.58-.8-2.11-1.2-3.16-.81-3.61Z"/><path class="uuid-1d31c399-9bd7-4885-a3a7-fb969f25bb07" d="m106.37,22.35c.47-.46.39-1.23-.16-1.57-3.12-1.93-6.83-3.95-11.26-5.71-5.08-2.01-9.71-3.12-13.44-3.75,1.27.41,3.06,1.07,5.1,2.09,2.34,1.17,4.28,2.45,5.81,3.62,1.81,1.37,3.63,2.47,5.83,4.28,1.8,1.47,3.27,2.83,4.38,3.92.15.14.37.13.75.07l3-2.94Z"/><path class="uuid-1d31c399-9bd7-4885-a3a7-fb969f25bb07" d="m50.26,115.82c.59-.66.81-.89,1.14-1.16.43-.35.64-.52.93-.55.68-.06,1.23.58,1.38.76,3.3,2.51,11.92,8.34,23.74,8.13,12.22-.23,20.54-6.81,25.75-10.87,9.07-7.06,13.66-15.31,15.73-19.73,1.8-3.94,5.67-15.9,6.27-28.04.04-.82.14-3.31-.89-3.72-.56-.23-1.36.2-2.41.77-.81.44-1.39.91-1.7,1.18-.88.76-1.51,1.6-2,2.26-.76,1.01-.82,1.25-.98,1.22-.6-.09-.51-3.89-.37-8.92.03-1.22,0-2.16.1-3.5.14-1.75.38-3.21.6-4.25.02-.08.05-.14.1-.19l8.49-9.17c.18-.19.49-.17.64.04,2.34,3.07,4.1,5.82,5.39,7.99,1.06,1.79,2.23,3.78,3.45,6.61.69,1.6,1.21,3.19,2.15,6.03,6.7,20.27.33,41.53.33,41.53-5.52,18.43-17.06,29.39-21.96,33.56-7.2,6.13-13.58,9.92-19.9,12.34-9.78,3.74-17.92,4.14-22.71,4.31-14.56.52-25.29-3.24-27.74-4.12-9.12-3.32-15.98-7.98-20.65-11.82-.07-.03-.49-.2-.65-.65-.14-.4-.03-.85.28-1.17,2.44-2.48,4.87-4.96,7.31-7.45.21-.21.4-.35.58-.45,0,0,0,0,0,0,0,0,0,0,0,0,0,0,0,0,0,0,4.08-1.18,8.18.24,8.18.24,1.88.65,3.48,1.2,4.6,2.72,2.09,2.83-.1,5.43,1.87,8.13,1.84,2.52,5.43,2.59,6.02,2.6,4.16.01,6.62-3.16,7.02-3.7.2-.26,1.08-1.49,1.57-3.34.34-1.26.37-2.35.34-3.1-4.13-4.09-8.26-8.17-12.38-12.26-.25-.15-.59-.4-.64-.77-.03-.24.08-.41,1.02-1.46Z"/><path class="uuid-1d31c399-9bd7-4885-a3a7-fb969f25bb07" d="m87.53,47l13.63-13.62,9.19-9.18c1.83-1.57,3.78-3.47,5.69-5.75,4.71-5.62,7.38-11.36,8.93-15.77.13-.38.64-.45.87-.12,1.67,2.42,3.85,6.37,4.68,11.62,1.72,10.97-3.8,19.34-5.23,21.38-.94,1.08-1.88,2.17-2.81,3.25l-26.45,26.7c-1.64-2.23-3.47-5.12-5.12-8.67-1.71-3.69-2.74-7.07-3.38-9.84Z"/><path class="uuid-1d31c399-9bd7-4885-a3a7-fb969f25bb07" d="m54.74,79.7c.12-.12.29-.16.44-.09,2.41,1.09,5.26,2.6,8.26,4.73,2.93,2.08,5.27,4.21,7.08,6.08.15.16.14.4-.01.55-4.95,5.03-24.96,25.37-25.27,25.73,0,0-.21.24-.21.24h0s4.66,4.67,13.53,13.56c.08.41.54,2.85-1.05,4.91-1.03,1.33-3.12,2.78-5.27,2.14-1.38-.41-2.52-1.61-2.9-2.95-.59-2.04.98-3.05.52-5.11-.35-1.6-1.65-2.55-2.96-3.5-.83-.61-2.29-1.51-7.73-2.71-1.38-.31-3.3-.69-5.62-1.04-.03-.02-.13-.12-.28-.12-.1,0-.2.04-.28.11l-16,15.76c-.16.15-.41.15-.56,0l-6.06-6.19c-.15-.16-.15-.4,0-.56l16.02-16.11c0-.19,0-.38,0-.56-5.65-5.62-11.3-11.23-16.94-16.85-.16-.3-.3-.68-.37-1.12-.4-2.82,2.8-6.79,5.96-6.3,1.6.25,2.99,1.61,3.53,3.11.85,2.35-.97,3.51-.26,5.62.9,2.66,4.84,3.87,6.77,4.13,1.22.17,3.75.24,5.64.23.2,0,.5.05.56,0,7.82-7.89,15.63-15.79,23.45-23.68Z"/></g></g></svg>